<?xml version="1.0" encoding="UTF-8" standalone="no"?>
<!-- Generator: Adobe Illustrator 16.0.0, SVG Export Plug-In . SVG Version: 6.00 Build 0)  -->

<svg
   xmlns:dc="http://purl.org/dc/elements/1.1/"
   xmlns:cc="http://creativecommons.org/ns#"
   xmlns:rdf="http://www.w3.org/1999/02/22-rdf-syntax-ns#"
   xmlns:svg="http://www.w3.org/2000/svg"
   xmlns="http://www.w3.org/2000/svg"
   xmlns:sodipodi="http://sodipodi.sourceforge.net/DTD/sodipodi-0.dtd"
   xmlns:inkscape="http://www.inkscape.org/namespaces/inkscape"
   version="1.1"
   id="Capa_1"
   x="0px"
   y="0px"
   viewBox="0 0 940.017 940.017"
   style="enable-background:new 0 0 940.017 940.017;"
   xml:space="preserve"
   sodipodi:docname="badge-with-a-star.svg"
   inkscape:version="0.92.3 (2405546, 2018-03-11)"><metadata
   id="metadata47"><rdf:RDF><cc:Work
       rdf:about=""><dc:format>image/svg+xml</dc:format><dc:type
         rdf:resource="http://purl.org/dc/dcmitype/StillImage" /></cc:Work></rdf:RDF></metadata><defs
   id="defs45">
	

		
		
		
	</defs><sodipodi:namedview
   pagecolor="#ffffff"
   bordercolor="#666666"
   borderopacity="1"
   objecttolerance="10"
   gridtolerance="10"
   guidetolerance="10"
   inkscape:pageopacity="0"
   inkscape:pageshadow="2"
   inkscape:window-width="2560"
   inkscape:window-height="1361"
   id="namedview43"
   showgrid="false"
   inkscape:zoom="1"
   inkscape:cx="259.25424"
   inkscape:cy="256"
   inkscape:window-x="-9"
   inkscape:window-y="-9"
   inkscape:window-maximized="1"
   inkscape:current-layer="Capa_1" />
<path
   d="m 630.009,667.5 c -0.6,0 -1.2,0 -1.8,0 l -39.601,-1.5 -29.399,26.6 c -9.2,8.301 -21.101,12.9 -33.5,12.9 -6.5,0 -12.9,-1.199 -18.9,-3.699 l -36.7,-15 -36.699,15 c -6,2.5 -12.4,3.699 -18.9,3.699 -12.4,0 -24.3,-4.6 -33.5,-12.9 l -29.4,-26.6 -39.6,1.5 c -0.6,0 -1.2,0 -1.8,0 -18.601,0 -35.5,-10.199 -44.2,-26.699 l -18.5,-35.102 -1.5,-0.5 V 914.9 c 0,18.6 19.601,30.699 36.2,22.299 L 459.01,848.4 c 7.1,-3.5 15.4,-3.5 22.5,0 l 176.5,88.9 c 16.6,8.398 36.2,-3.701 36.2,-22.301 V 605.301 l -1.5,0.5 -18.5,35.1 c -8.602,16.4 -25.602,26.599 -44.201,26.599 z"
   id="path2"
   style="fill:#ffffff"
   inkscape:connector-curvature="0" /><path
   d="m 811.209,353.6 c 5.1,-8.1 5.1,-18.4 0,-26.6 l -21.101,-33.6 c -3.5,-5.5 -4.6,-12.2 -3.3,-18.5 l 8.4,-38.8 c 2,-9.4 -1.5,-19.1 -9.101,-25 l -31.3,-24.3 c -5.1,-4 -8.5,-9.8 -9.399,-16.3 l -5.5,-39.3 c -1.301,-9.5 -8,-17.4 -17.101,-20.4 l -37.7,-12.2 c -6.199,-2 -11.399,-6.4 -14.399,-12.1 l -18.5,-35.1 c -4.3,-8.2 -12.9,-13.3 -22.101,-13.3 -0.3,0 -0.6,0 -0.899,0 l -39.601,1.5 c -0.3,0 -0.6,0 -0.899,0 -6.2,0 -12.2,-2.3 -16.8,-6.5 l -29.4,-26.6 c -4.7,-4.2 -10.7,-6.5 -16.8,-6.5 -3.2,0 -6.4,0.6 -9.4,1.9 l -36.7,15 c -3,1.2 -6.199,1.9 -9.399,1.9 -3.2,0 -6.4,-0.6 -9.4,-1.9 l -36.7,-15 c -3.1,-1.2 -6.3,-1.9 -9.399,-1.9 -6.101,0 -12.101,2.2 -16.8,6.5 l -29.4,26.6 c -4.6,4.2 -10.6,6.5 -16.8,6.5 -0.3,0 -0.601,0 -0.9,0 l -39.6,-1.5 c -0.3,0 -0.601,0 -0.9,0 -9.2,0 -17.8,5.1 -22.1,13.3 l -18.5,35.1 c -3,5.8 -8.2,10.1 -14.399,12.1 l -37.7,12.2 c -9.101,2.9 -15.8,10.9 -17.101,20.4 l -5.5,39.3 c -0.899,6.5 -4.3,12.3 -9.399,16.3 l -31.7,24.3 c -7.601,5.9 -11.101,15.6 -9.101,25 l 8.4,38.8 c 1.4,6.4 0.2,13 -3.3,18.5 L 128.809,327 c -5.1,8.1 -5.1,18.4 0,26.6 l 21.101,33.6 c 3.5,5.5 4.6,12.2 3.3,18.5 l -8.4,38.801 c -2,9.399 1.5,19.1 9.101,25 l 31.3,24.3 c 5.1,4 8.5,9.799 9.4,16.299 l 5.5,39.301 c 1.3,9.5 8,17.4 17.1,20.4 l 28.6,9.199 9.2,3 c 6.2,2 11.4,6.4 14.4,12.1 l 18.5,35.1 c 4.3,8.201 12.899,13.301 22.1,13.301 0.3,0 0.6,0 0.9,0 l 39.6,-1.5 c 0.3,0 0.6,0 0.9,0 6.199,0 12.199,2.301 16.8,6.5 l 29.399,26.6 c 4.7,4.201 10.7,6.5 16.801,6.5 3.199,0 6.399,-0.6 9.399,-1.9 l 36.7,-15 c 3,-1.199 6.2,-1.898 9.4,-1.898 3.199,0 6.399,0.6 9.399,1.898 l 36.7,15 c 3.1,1.201 6.3,1.9 9.4,1.9 6.1,0 12.1,-2.199 16.8,-6.5 l 29.399,-26.6 c 4.601,-4.199 10.601,-6.5 16.801,-6.5 0.3,0 0.6,0 0.899,0 l 39.601,1.5 c 0.3,0 0.6,0 0.899,0 9.2,0 17.8,-5.1 22.101,-13.301 l 18.5,-35.1 c 3,-5.799 8.199,-10.1 14.399,-12.1 l 9.2,-3 28.6,-9.199 c 9.101,-2.9 15.801,-10.9 17.101,-20.4 l 5.5,-39.301 c 0.899,-6.5 4.3,-12.299 9.399,-16.299 l 31.301,-24.3 c 7.6,-5.9 11.1,-15.601 9.1,-25 l -8.4,-38.801 c -1.399,-6.399 -0.199,-13 3.301,-18.5 z m -99.3,88.9 c -5.101,11.899 -10.9,23.399 -17.601,34.4 -10.8,17.699 -23.7,34.199 -38.6,49 -24.101,24.1 -52.2,43 -83.4,56.199 -32.399,13.701 -66.8,20.6 -102.2,20.6 -35.399,0 -69.8,-6.898 -102.199,-20.6 -31.301,-13.199 -59.301,-32.1 -83.4,-56.199 -14.899,-14.9 -27.8,-31.301 -38.6,-49 -6.7,-11 -12.601,-22.4 -17.601,-34.4 -13.699,-32.4 -20.6,-66.801 -20.6,-102.2 0,-35.4 6.9,-69.8 20.6,-102.2 13.2,-31.3 32.101,-59.3 56.2,-83.4 24.099,-24.1 52.2,-43 83.4,-56.2 32.399,-13.7 66.8,-20.6 102.199,-20.6 35.4,0 69.801,6.9 102.2,20.6 31.3,13.2 59.3,32.1 83.4,56.2 24.1,24.1 43,52.2 56.2,83.4 13.699,32.4 20.6,66.8 20.6,102.2 0.002,35.4 -6.899,69.8 -20.598,102.2 z"
   id="path4"
   style="fill:#ffffff"
   inkscape:connector-curvature="0" />
<g
   id="g12">
</g>
<g
   id="g14">
</g>
<g
   id="g16">
</g>
<g
   id="g18">
</g>
<g
   id="g20">
</g>
<g
   id="g22">
</g>
<g
   id="g24">
</g>
<g
   id="g26">
</g>
<g
   id="g28">
</g>
<g
   id="g30">
</g>
<g
   id="g32">
</g>
<g
   id="g34">
</g>
<g
   id="g36">
</g>
<g
   id="g38">
</g>
<g
   id="g40">
</g>
<circle
   style="opacity:1;fill:none;fill-opacity:1;stroke:#ffffff;stroke-width:118.92878723;stroke-linecap:round;stroke-linejoin:miter;stroke-miterlimit:4;stroke-dasharray:none;stroke-opacity:0.99502486;paint-order:normal"
   id="path861"
   cx="468.81036"
   cy="339.01682"
   r="206.75136" /></svg>