<?xml version="1.0" encoding="UTF-8" standalone="no"?>
<svg id="svg2" xmlns:rdf="http://www.w3.org/1999/02/22-rdf-syntax-ns#" xmlns="http://www.w3.org/2000/svg" height="200" width="200" version="1.1" xmlns:cc="http://creativecommons.org/ns#" xmlns:dc="http://purl.org/dc/elements/1.1/" viewBox="0 0 200 199.99998">
 <g id="layer1" transform="translate(623.07 -178.15)">
  <g id="XMLID_1144_" fill="#fff" transform="translate(-1313.1 137.45)">
   <path id="XMLID_1157_" d="m781 154.9c3.6034-1.8946 2.6562-8.2039-1.9402-7.3844-3.9582 4.5944-8.5873-1.8854-13.843 0.0484-3.7898 0.86474-6.2761 3.1727-9.277-0.0484-4.5816-0.82445-5.5665 5.4973-1.9402 7.3844-4.4098 5.219-1.5333 12.911-0.69571 17.696-4.3963 2.7958 0.95288 9.5629 4.5957 5.7043 3.4814-2.5481 9.4274 3.6649 14.162 0.4625 3.3156-2.759 4.7622-0.55907 7.8375 0.6375 4.2927-0.0761 4.5764-5.69 1.3-7.5 3.4125-5.1103 3.2322-11.943-0.2-17zm-10.6 16.7c-6.5629 2.8998-14.169-4.7568-11.2-11.3 2.1086-6.1223 11.079-7.6894 14.992-2.431 3.8958 4.4277 1.7797 11.884-3.792 13.731z"/>
   <path id="XMLID_1152_" d="m826.2 109.3c3.6034-1.8946 2.6562-8.2039-1.9402-7.3844-3.9582 4.5944-8.5873-1.8854-13.843 0.0484-3.7898 0.86474-6.2761 3.1727-9.277-0.0484-4.5816-0.82445-5.5665 5.4973-1.9402 7.3844-4.4098 5.219-1.5333 12.911-0.69571 17.696-4.3963 2.7958 0.95288 9.5629 4.5957 5.7043 3.4814-2.5481 9.4274 3.6649 14.162 0.4625 3.3156-2.759 4.7622-0.55907 7.8375 0.6375 4.2927-0.0761 4.5764-5.69 1.3-7.5 3.4297-5.1221 3.2052-11.921-0.2-17zm-10.6 16.8c-6.5633 2.9056-14.168-4.759-11.2-11.3 2.1094-6.1209 11.081-7.6933 14.992-2.431 3.9147 4.4485 1.7488 11.833-3.792 13.731z"/>
   <path id="XMLID_1145_" d="m812.6 82.7c-10.473-0.30403-20.486 4.7848-27.278 12.596-14.857 15.066-29.87 29.983-44.627 45.145-11.181 12.394-11.439 32.803-0.5036 45.433 10.378 13.059 30.392 16.754 44.718 8.1832 7.729-4.6812 13.329-11.944 19.84-18.089 11.282-11.452 22.776-22.736 33.922-34.296 12.74-13.34 12.42-36.82-1.2-49.427-6.62-6.322-15.8-9.497-24.87-9.533zm-35 30.6c-0.76046 5.6826-0.0752 11.554 2 16.9-5.4853-1.8063-11.365-2.4458-17.1-1.7 5.0333-5.0667 10.067-10.133 15.1-15.2zm-10.2 78c-14.157 0.33665-27.233-11.581-28.018-25.754-1.3345-13.251 8.1988-26.246 21.099-29.24 12.873-3.2968 28.08 3.2164 32.877 16 5.1143 12.218 0.52283 27.66-10.894 34.598-4.4654 2.8657-9.7575 4.4103-15.063 4.3976zm35-23.4c0.73191-5.6635 0.0972-11.486-1.7-16.9 5.3559 1.8984 11.169 2.6098 16.8 1.7-5.0333 5.0667-10.067 10.133-15.1 15.2zm10.2-22.1c-14.157 0.33665-27.233-11.581-28.018-25.754-1.402-14.082 9.553-27.959 23.615-29.744 12.498-2.0333 26.358 4.8564 30.606 17.137 4.7314 12.12 0.0665 27.143-11.14 33.964-4.4661 2.866-9.7568 4.4101-15.063 4.3976z"/>
  </g>
 </g>
</svg>
