<?xml version="1.0" encoding="UTF-8" standalone="no"?>
<svg id="svg2" xmlns:rdf="http://www.w3.org/1999/02/22-rdf-syntax-ns#" xmlns="http://www.w3.org/2000/svg" height="200" width="200" version="1.1" xmlns:cc="http://creativecommons.org/ns#" xmlns:dc="http://purl.org/dc/elements/1.1/" viewBox="0 0 200 199.99998">
 <g id="layer1" transform="translate(623.07 -178.15)">
  <path id="XMLID_784_" fill="#fff" d="m-523.07 220.25c-22.778-0.31469-44.726 14.348-53.353 35.395-9.0102 20.672-4.3233 46.349 11.469 62.461 15.178 16.312 40.167 22.311 61.094 14.662 21.937-7.4807 38.062-29.177 38.647-52.385 1.1865-22.788-12.691-45.288-33.424-54.712-7.616-3.5744-16.022-5.4313-24.434-5.421zm-44.9 81.5c-3.2737-6.1376-5.1168-12.983-5.7-19.9h19.7v19.9h-14zm48.5-54.3v-19.6c9.8665 1.4061 18.194 9.7335 19.6 19.6h-19.6zm19.9 7.2v19.9h-19.9v-19.9h19.9zm-27.1-26.8v19.6h-19.6c1.3585-9.928 9.6685-18.241 19.6-19.6zm0 26.8v19.9h-19.9v-19.9h19.9zm-27.2 19.9h-19.7c0.48664-6.9332 2.4274-13.766 5.7-19.9h14.1c-0.0661 6.5991 0.13256 13.468-0.1 19.9zm7.2 7.3h19.9v19.9h-19.9v-19.9zm20 27.2v19.6c-9.8665-1.4061-18.194-9.7335-19.6-19.6h19.6zm7.2 19.6v-19.6h19.6c-1.386 9.9147-9.7252 18.144-19.6 19.6zm0-26.9v-19.9h19.9v19.9h-19.9zm27.2-19.9h19.7c-0.48664 6.9332-2.4274 13.766-5.7 19.9h-14.1c0.0661-6.5991-0.13256-13.468 0.1-19.9zm0-7.3v-19.9h14.1c3.2737 6.1376 5.1168 12.983 5.7 19.9h-19.8zm9.4-27.1h-9.6c0.49071-3.8577-4.4258-11.586-3.3957-11.97 4.9774 3.2051 9.3597 7.3042 12.996 11.97zm-66.3-12.6c-3.1598 3.4086-2.9122 10.115-5.3826 12.6h-8.6174c3.8178-5.0315 8.5784-9.3531 14-12.6zm-14.1 74.2h9.6c-0.49071 3.8577 4.4258 11.586 3.3957 11.97-4.9774-3.2051-9.3597-7.3042-12.996-11.97zm66.3 12.5c3.1598-3.4086 2.9122-10.115 5.3826-12.6h8.6174c-3.7706 5.0715-8.5281 9.4243-14 12.6z"/>
 </g>
</svg>
