<?xml version="1.0" encoding="UTF-8" standalone="no"?>
<svg id="svg2" xmlns:rdf="http://www.w3.org/1999/02/22-rdf-syntax-ns#" xmlns="http://www.w3.org/2000/svg" height="200" width="200" version="1.1" xmlns:cc="http://creativecommons.org/ns#" xmlns:dc="http://purl.org/dc/elements/1.1/" viewBox="0 0 200 199.99998">
 <g id="layer1" transform="translate(623.07 -178.15)">
  <path id="XMLID_1223_" fill="#fff" d="m-465.27 258.86c0.3285-16.818-13.592-31.921-30.095-34.004-5.264-0.76794-10.705-0.43298-15.805 1.1037 3.3105-3.711-3.5094-8.3104-5.79-3.9328-2.07 2.9109-4.14 5.8219-6.21 8.7328-2.512-3.2832-4.5818-6.97-7.4047-9.9703-3.127-2.2503-7.2588 2.3165-4.5953 5.1703-16.045-5.0794-35.084 2.7471-42.398 18.029-5.9315 11.533-4.149 26.378 4.1983 36.271-10.144 11.841-10.226 30.741-0.12646 42.639 10.794 13.791 32.038 17.231 46.776 7.9007 3.9308-5.0085 7.4292 1.2415 11.866 2.3819 15.627 6.9483 35.748 1.0027 44.643-13.727 7.7147-11.838 6.5713-28.444-2.5591-39.194 4.7793-6.0397 7.5218-13.685 7.5-21.4zm-57.9 59.6c-7.8142-9.4366-7.8122-24.163 0-33.6 7.8204 9.5387 7.8279 24.054 0 33.6zm0-42.8c-7.8122-9.4366-7.8142-24.163 0-33.6 7.8226 9.5412 7.8262 24.051 0 33.6zm-50.9 26c-0.19525-8.3201 4.2209-15.915 10.2-21.4-6.3552-5.7774-10.828-14.033-10.163-22.816 0.45708-14.237 13.559-26.093 27.629-26.075 5.9998-0.11787 14.858 1.896 17.671 6.3491-10.065 11.879-9.963 30.732 0.16286 42.542-10.126 11.81-10.228 30.663-0.16286 42.542-3.0046 4.6059-12.151 6.6198-18.391 6.3223-14.39-0.44694-27.176-12.842-26.946-27.464zm101.7 0c0.29553 13.971-11.725 26.343-25.494 27.358-7.1615 0.73916-14.566-1.3059-20.306-5.6582 10.31-11.657 10.631-30.501 0.762-42.524 0.83435-3.5182 4.959-7.599 5.7211-12.003 3.4566-10.753 0.8991-23.134-6.4831-31.673 11.586-9.1629 29.94-7.1616 39.287 4.2439 8.7922 9.7655 8.5923 25.921-0.45823 35.464-0.94843 1.6228-4.8026 3.2068-1.8682 4.8125 5.4486 5.1708 8.914 12.393 8.839 19.98z"/>
 </g>
</svg>
