<?xml version="1.0" encoding="UTF-8" standalone="no"?>
<svg id="svg2" xmlns:rdf="http://www.w3.org/1999/02/22-rdf-syntax-ns#" xmlns="http://www.w3.org/2000/svg" height="200" width="200" version="1.1" xmlns:cc="http://creativecommons.org/ns#" xmlns:dc="http://purl.org/dc/elements/1.1/" viewBox="0 0 200 199.99998">
 <g id="layer1" transform="translate(623.07 -178.15)">
  <path id="XMLID_767_" fill="#fff" d="m-465.07 278.15c0.32659-15.213-12.255-29.233-27.4-30.6-1.367-15.145-15.387-27.727-30.6-27.4-15.213-0.32659-29.233 12.255-30.6 27.4-15.145 1.367-27.727 15.387-27.4 30.6-0.32659 15.213 12.255 29.233 27.4 30.6 1.367 15.145 15.387 27.727 30.6 27.4 15.213 0.32659 29.233-12.255 30.6-27.4 15.181-1.4 27.699-15.346 27.4-30.6zm-57.9-50.7c11.37-0.24987 21.937 8.9098 23.3 20.2-13.564 1.4525-25.131 13.046-26.6 26.6-13.044-1.4776-22.693-15.273-19.752-28.042 1.9951-10.737 12.152-18.934 23.052-18.758zm-50.8 50.7c-0.24987-11.37 8.9098-21.937 20.2-23.3 1.4525 13.564 13.046 25.131 26.6 26.6-1.4765 13.03-15.252 22.687-28.013 19.752-10.707-2.0011-18.964-12.168-18.787-23.052zm50.8 50.8c-11.37 0.24987-21.937-8.9098-23.3-20.2 9.7642-1.1916 18.712-7.4086 23.3-16.1 4.5876 8.6914 13.536 14.908 23.3 16.1-1.4211 11.351-11.855 20.399-23.3 20.2zm27.2-27.2c-13.488 0.39088-25.251-12.624-23.478-26.007 0.99934-13.435 15.094-23.82 28.224-20.712 13.24 2.3465 22.219 17.38 17.752 30.124-2.9134 9.6434-12.387 16.742-22.499 16.595z"/>
 </g>
</svg>
