<?xml version="1.0" encoding="UTF-8" standalone="no"?>
<svg id="svg2" xmlns:rdf="http://www.w3.org/1999/02/22-rdf-syntax-ns#" xmlns="http://www.w3.org/2000/svg" height="200" width="200" version="1.1" xmlns:cc="http://creativecommons.org/ns#" xmlns:dc="http://purl.org/dc/elements/1.1/" viewBox="0 0 200 199.99998">
 <g id="layer1" transform="translate(623.07 -178.15)">
  <path id="XMLID_720_" fill="#fff" d="m-533.23 229.53c-0.89353 3.1686-0.63837 5.8569-3.9551 7.9551l-29.945 29.945c-5.7535-1.7727-8.6229 5.8973-10.96 9.9803-6.1499 13.456-0.8017 30.79 11.926 38.37 11.949 7.7312 29.548 5.6664 38.745-5.3631-0.92246-3.296 1.1272-5.0583 3.4745-7.1729 1.4232-1.8473 2.8464 1.9269 4.2697 2.6405 8.7344 8.6547 17.313 17.475 26.148 26.023 7.8931 6.8641 21.505 4.0974 26.059-5.3341 3.9924-7.2197 1.6284-16.661-4.6716-21.759-8.8635-8.8949-17.727-17.79-26.59-26.685l4.5-4.5c5.7535 1.7727 8.6229-5.8973 10.96-9.9803 6.0378-13.23 0.98675-30.161-11.254-37.99-11.736-8.078-28.797-6.3716-38.706 3.8705zm-33.3 76.9c-8.1166-7.7923-9.1825-21.532-2.4-30.5l32.9 32.9c-9.0221 6.8116-22.635 5.705-30.5-2.4zm90.9 5.1c5.7022 5.1608 2.4551 15.739-5.1469 16.842-5.6596 1.3951-9.5909-3.3045-13.099-6.8883l-24.154-24.154 14.1-14.1 28.3 28.3zm-52.5-14.2l-4.5 4.5-29.3-29.3 33.3-33.3 29.3 29.3-28.8 28.8zm35.7-32.1l-32.9-32.9c10.461-8.0507 27.181-4.8119 33.841 6.6024 5.0389 7.9269 4.6645 18.753-0.94131 26.298z"/>
 </g>
</svg>
