<?xml version="1.0" encoding="UTF-8" standalone="no"?>
<svg id="svg2" xmlns:rdf="http://www.w3.org/1999/02/22-rdf-syntax-ns#" xmlns="http://www.w3.org/2000/svg" height="200" width="200" version="1.1" xmlns:cc="http://creativecommons.org/ns#" xmlns:dc="http://purl.org/dc/elements/1.1/" viewBox="0 0 200 199.99998">
 <g id="layer1" transform="translate(623.07 -178.15)">
  <path id="XMLID_1243_" fill="#fff" d="m-492.65 247.6c-1.3094-18.287-21.363-31.914-38.835-26.191-11.682 3.2488-20.743 14.094-21.765 26.191-17.996 1.0268-31.765 20.238-26.94 37.614 2.842 12.406 14.227 22.213 26.94 23.086 0.93961 18.575 21.375 32.398 38.99 26.562 11.805-3.3533 20.863-14.426 21.81-26.662 18.806-1.2206 32.597-22.505 25.663-40.124-3.7843-11.048-14.214-19.379-25.863-20.476zm0.1 23.8c8.9513 3.7803-2.057 19.552 0 6.7775v-6.7775zm-30.4-44.6c14.318-0.4581 25.691 13.54 23.9 27.394v31.506c-3.0056-0.4163-7.6528 0.80897-9.7-0.56569-0.12195-11.834 0.25118-23.691-0.2-35.509-1.2339-12.214-19.011-16.502-25.531-6.0344-0.83319 6.2672-7.2519 3.3654-11.585 4.0094-0.66206-10.473 11.851-21.385 23.117-20.8zm-7.7 43.5h15.3v15.3h-15.3v-15.3zm14.1-22.8h-12.8c2.7949-4.6163 10-4.6201 12.8 0zm-58 30.5c-0.44998-14.277 13.491-25.575 27.294-23.9h31.906c-0.4163 3.0056 0.80897 7.6528-0.56569 9.7-11.888 0.1183-23.798-0.24097-35.672 0.1875-11.328 0.98588-16.445 16.792-7.7826 24.206 6.4998 1.6457 6.1791 6.4108 5.8201 11.892-7.1603 4.3312-21.432-9.8613-20.894-19.824l-0.0795-1.1239-0.0267-1.1374zm21.1 6.5c-8.9513-3.7803 2.057-19.552 0-6.7775v6.7775zm30.5 45.1c-14.327 0.45052-25.672-13.542-24-27.394v-32.006c3.0056 0.4163 7.6528-0.80897 9.7 0.56569 0.0942 11.906-0.19212 23.826 0.15 35.722 1.1339 10.85 15.776 16.495 23.553 8.575 2.9977-4.5695 4.7394-8.3256 10.885-6.7624 8.2624-0.12427-2.153 14.149-6.0426 16.512-4.0592 3.0935-9.1426 4.8041-14.246 4.7876zm-6.7-21.2h13.3c-2.6291 5.066-10.755 5.2632-13.3 0zm37.1-6.7c-12.72 0.44202-25.468 0.0846-38.2 0.2 0.4163-3.0056-0.80897-7.6528 0.56569-9.7 11.888-0.1181 23.798 0.24076 35.672-0.1875 11.328-0.98588 16.445-16.792 7.7826-24.206-6.4998-1.6457-6.1791-6.4108-5.8201-11.892 8.2969-3.712 22.247 11.15 20.8 22.085 0.20229 11.703-9.2206 22.299-20.8 23.7z"/>
 </g>
</svg>
