<?xml version="1.0" encoding="UTF-8" standalone="no"?>
<svg id="svg2" xmlns:rdf="http://www.w3.org/1999/02/22-rdf-syntax-ns#" xmlns="http://www.w3.org/2000/svg" height="200" width="200" version="1.1" xmlns:cc="http://creativecommons.org/ns#" xmlns:dc="http://purl.org/dc/elements/1.1/" viewBox="0 0 200 199.99998">
 <g id="layer1" transform="translate(623.07 -178.15)">
  <path id="XMLID_704_" d="m-477.22 232.37c-13.4-13.4-35.2-13.4-48.6 0-0.9 0.9-1.8 1.9-2.6 3l-24.8 24.8-3.1-3.1c-0.8-0.8-1.8-1.2-2.9-1.2s-2.1 0.4-2.9 1.2c-4.9 4.9-6.8 11.5-6.1 17.8-0.2 0.1-0.5 0.2-0.7 0.4-6.5 6.5-10.1 15.1-10.1 24.3s3.6 17.8 10.1 24.3 15.1 10.1 24.3 10.1 17.8-3.6 24.3-10.1c0.9-0.9 1.8-1.9 2.6-3l24.7-24.8 3.1 3.1c1.6 1.6 4.1 1.6 5.7 0 4.9-4.9 6.8-11.5 6.1-17.8 0.2-0.1 0.5-0.2 0.7-0.4 13.7-13.4 13.7-35.2 0.2-48.6zm-10 57.8-2.6-2.6c-1.5-1.5-4.2-1.5-5.7 0l-27.8 27.8c-0.1 0.1-0.2 0.2-0.3 0.4-0.7 0.9-1.4 1.7-2.1 2.4-5 5-11.6 7.7-18.6 7.7s-13.6-2.7-18.6-7.7-7.7-11.6-7.7-18.6c0-5.9 2-11.6 5.6-16.2 0.9 1.4 1.9 2.8 3.1 4.1 1.3 1.3 2.7 2.3 4.3 3.2-4.2 6.2-3.5 14.7 2 20.2 3 3 7.1 4.7 11.3 4.7s8.3-1.7 11.3-4.7l30.4-30.4c1.6-1.6 1.6-4.1 0-5.7l-2.7-2.7c1.9-1 4-1.5 6.2-1.5 3.6 0 7 1.4 9.5 3.9 4.3 4.3 5.1 10.7 2.4 15.7zm-44.3-8.5-3.1-3.1 27.5-27.5c3-3 8.2-3 11.2 0 3.1 3.1 3.1 8.1 0 11.2-0.1 0.1-0.2 0.3-0.3 0.5-6.5-0.9-13.2 1.1-18.2 6-1.6 1.6-1.6 4.1 0 5.7l3.1 3.1-27.5 27.5c-3 3-8.2 3-11.2 0-3.1-3.1-3.1-8.1 0-11.3 0.1-0.1 0.2-0.3 0.3-0.5 1 0.1 2 0.3 3 0.3 5.8 0 11.2-2.2 15.2-6.3 1.6-1.4 1.6-4 0-5.6zm47.6-12.9c-1.3-1.3-2.7-2.3-4.3-3.2 4.2-6.2 3.5-14.7-2-20.2-3-3-7.1-4.7-11.3-4.7s-8.3 1.7-11.3 4.7l-30.4 30.4c-0.8 0.8-1.2 1.8-1.2 2.9s0.4 2.1 1.2 2.9l2.7 2.7c-1.9 1-4 1.5-6.2 1.5-3.6 0-7-1.4-9.5-3.9-4.2-4.3-5.1-10.7-2.4-15.7l2.6 2.6c0.8 0.8 1.8 1.2 2.9 1.2s2.1-0.4 2.9-1.2l27.8-27.8c0.1-0.1 0.2-0.2 0.3-0.4 0.7-0.9 1.4-1.7 2.1-2.4 10.2-10.2 26.9-10.3 37.2 0 9.5 9.5 10.1 24.4 2.1 34.7-1-1.6-2-2.9-3.2-4.1z" class="st1" fill="#fff"/>
 </g>
</svg>
