<?xml version="1.0" encoding="UTF-8" standalone="no"?>
<svg id="svg2" xmlns:rdf="http://www.w3.org/1999/02/22-rdf-syntax-ns#" xmlns="http://www.w3.org/2000/svg" height="200" width="200" version="1.1" xmlns:cc="http://creativecommons.org/ns#" xmlns:dc="http://purl.org/dc/elements/1.1/" viewBox="0 0 200 199.99998">
 <g id="layer1" transform="translate(623.07 -178.15)">
  <path id="XMLID_352_" fill="#fff" d="m-488.97 244c-1.5116-16.881-17.153-30.875-34.1-30.5-16.936-0.35403-32.552 13.642-34.1 30.5-16.881 1.5116-30.875 17.153-30.5 34.1-0.38315 16.952 13.627 32.572 30.5 34.1 1.5224 16.885 17.123 30.961 34.1 30.6 16.704 0.3703 32.12-13.226 34.002-29.797 3.3507-2.0951 9.6101-2.2249 13.476-5.2045 14.392-7.9659 21.086-26.981 14.761-42.185-4.4822-11.652-15.698-20.342-28.139-21.614zm-12.4 34.2c-0.36335-6.9085 8.8087-11.225 13.909-6.5608 5.5142 4.0934 3.0986 13.851-3.6945 14.888-5.0799 1.1774-10.333-3.1211-10.215-8.3275zm-21.8-56.6c14.824-0.43346 27.865 13.699 26.175 28.438-0.67313 9.0025-6.4419 17.369-14.575 21.262l-7.5-7.5c10.301-2.1666 15.832-15.035 10.539-24.037-4.655-9.4304-18.593-11.747-26.014-4.2754-5.1539 2.0739-2.8838 13.39-8.6035 9.724-3.9175-0.72508-7.8119-1.1254-4.9002-5.8586 3.4737-10.401 13.889-17.901 24.879-17.753zm0 113.2c-12.663 0.25821-24.448-9.9259-26-22.5 4.7662 0.0666 10.588-5.467 10.401 2.0239 3.3157 9.9857 16.806 14.226 25.197 7.8378 4.0477-2.8252 6.6976-7.5337 7.0024-12.462 3.6876 2.5009 12.256 0.73582 8.3115 7.1844-3.4112 10.5-13.849 18.066-24.912 17.916zm-21.8-56.6c0.36335 6.9085-8.8087 11.225-13.909 6.5608-5.5142-4.0934-3.0986-13.851 3.6945-14.888 5.1003-1.1862 10.355 3.0886 10.215 8.3275zm55.9 25.9c-9.4585 1.622-18.832-2.9706-24.885-10.085-9.9059-9.7527-19.518-19.828-29.614-29.372-8.3892-6.7443-22.239-2.2281-25.465 7.9163-3.8694 9.8151 3.996 21.728 14.564 21.941 8.2868 1.7204 15.421-7.0146 17.717-11.983l6.983 6.983c-5.7461 12.249-21.626 18.451-33.992 12.563-13.346-5.4616-19.742-22.782-13.047-35.58 5.904-12.955 23.109-18.721 35.589-11.833 6.9718 3.8986 11.82 10.468 17.618 15.818 7.0423 6.8819 13.77 14.112 21.031 20.752 8.3834 6.7824 22.237 2.275 25.465-7.8792 3.8694-9.8151-3.996-21.728-14.564-21.941 2.4673-3.7169 0.76094-12.261 7.2131-8.3074 13.831 4.2649 21.682 21.013 16.157 34.386-3.253 8.7645-11.493 15.393-20.77 16.622zm-25.5-56.2c0.36335 6.9085-8.8087 11.225-13.909 6.5608-5.5142-4.0934-3.0986-13.851 3.6945-14.888 5.0799-1.1774 10.333 3.1211 10.215 8.3275zm0.1 60.5c0.36335 6.9085-8.8087 11.225-13.909 6.5608-5.5142-4.0934-3.0986-13.851 3.6945-14.888 5.1207-1.235 10.328 3.1057 10.215 8.3275z"/>
 </g>
</svg>
