<?xml version="1.0" encoding="UTF-8" standalone="no"?>
<svg id="card-comment" xmlns="http://www.w3.org/2000/svg" height="56" viewBox="0 0 56 56" width="56" version="1.1">
 <path stroke-linejoin="round" d="m12.717 37.13c7.2668-8.2609 14.393-16.655 21.751-24.83 3.4658-3.1799 9.8719-1.5288 11.094 3.161 1.0208 3.1393-0.54351 6.4095-2.8349 8.4963l-4.8673 5.5812m0.21012-0.2366c-6.199 7.005-12.197 14.199-18.53 21.076-4.787 4.346-13.391 3.01-16.289-2.953-2.482-4.591-1.0222-10.59 2.7647-13.975 2.7608-3.166 5.5213-6.331 8.2823-9.496m-8.4264 9.664c7.8374-8.89 15.488-17.956 23.446-26.731 5.743-5.3796 15.675-5.0752 20.938 0.8629 6.024 7.0371 4.278 14.858-0.848 20.852-5.918 6.89-11.81 13.225-17.767 20.081" stroke="#76838f" stroke-linecap="round" stroke-miterlimit="10" stroke-width="4.0281" fill="none"/>
</svg>
